<svg width="300" height="96" viewBox="0 0 300 96" fill="none" xmlns="http://www.w3.org/2000/svg">
<path d="M46.6513 7.65587C46.3053 7.9154 46.0457 9.12656 46.0457 10.2512C46.0457 12.0679 46.3918 12.241 50.8038 12.241H55.562V20.8921H69.4037V18.2967C69.4037 15.7879 69.3172 15.7014 65.0782 15.7014H60.7526V7.05029H54.0048C50.2848 7.05029 46.9108 7.30983 46.6513 7.65587Z" fill="url(#paint0_linear_983_1740)"/>
<path d="M38.2597 15.7014V22.6223H46.9108V27.3804C46.9108 31.879 46.9974 32.1385 49.0736 32.1385C51.2364 32.1385 51.2364 32.052 51.2364 24.7851V17.4316H42.5853V13.1061C42.5853 9.04005 42.4123 8.78051 40.4225 8.78051C38.2597 8.78051 38.2597 8.86702 38.2597 15.7014Z" fill="url(#paint1_linear_983_1740)"/>
<path d="M19.2273 18.2967C19.2273 20.8056 19.3138 20.8921 23.5528 20.8921H27.8784V31.2734H34.7993C41.6337 31.2734 41.7202 31.2734 41.7202 29.1106C41.7202 27.1209 41.4606 26.9479 37.3946 26.9479H33.0691V15.7014H19.2273V18.2967Z" fill="url(#paint2_linear_983_1740)"/>
<path d="M74.3349 16.307C73.9888 16.5665 73.7293 18.7293 73.7293 21.0651V25.2176H64.9917L65.2512 31.879C65.5107 38.5403 65.5107 38.6269 67.933 38.8864C70.2688 39.1459 70.2688 39.0594 70.2688 34.3878V29.5432H78.92V22.6223C78.92 15.9609 78.8335 15.7014 76.9302 15.7014C75.8056 15.7014 74.5944 15.9609 74.3349 16.307Z" fill="url(#paint3_linear_983_1740)"/>
<path d="M19.8329 25.8232C19.4868 26.0827 19.2273 28.2455 19.2273 30.5813V34.7339H10.5762V48.5756H13.1715C15.7668 48.5756 15.7668 48.4891 15.7668 43.8175V39.0594H24.418V32.1385C24.418 25.4772 24.3314 25.2176 22.4282 25.2176C21.3036 25.2176 20.0924 25.4772 19.8329 25.8232Z" fill="url(#paint4_linear_983_1740)"/>
<path d="M57.5517 25.8232C55.8215 26.1692 55.562 26.7748 55.562 30.4948V34.7339H46.9108V40.3571C46.9108 45.7208 46.9974 45.9803 48.9871 45.9803C51.0634 45.9803 52.1015 44.5961 52.1015 41.5682C52.1015 40.1841 52.7071 39.9245 56.4271 39.9245H60.7526V32.5711C60.7526 28.505 60.4931 25.3041 60.147 25.3041C59.7145 25.3906 58.5898 25.6502 57.5517 25.8232Z" fill="url(#paint5_linear_983_1740)"/>
<path d="M28.9165 37.0697C29.1761 39.3189 29.5221 39.492 33.7612 39.7515L38.2597 40.011V43.0389C38.2597 45.7208 38.4328 45.9803 40.8551 45.9803H43.4504V34.7339H28.657L28.9165 37.0697Z" fill="url(#paint6_linear_983_1740)"/>
<path d="M73.7293 43.385H63.348V48.5756H78.92V39.9245H82.3804C85.6678 39.9245 85.8409 39.7515 85.8409 37.3292V34.7339H73.7293V43.385Z" fill="url(#paint7_linear_983_1740)"/>
<path d="M19.8329 43.9905C19.4868 44.2501 19.2273 46.2398 19.2273 48.3161V52.0361H15.7668C12.4794 52.0361 12.3064 52.2091 12.3064 54.6314V57.2268H24.418V48.5756H34.7993V43.385H27.6189C23.6393 43.385 20.0924 43.6445 19.8329 43.9905Z" fill="url(#paint8_linear_983_1740)"/>
<path d="M83.0725 47.8835L82.813 52.4686L78.7469 52.7282L74.5944 52.9877V59.9086C74.5944 66.6565 74.5944 66.743 76.7572 66.743C78.8335 66.743 78.92 66.4834 78.92 61.9849V57.2268H87.5711V50.3059C87.5711 43.558 87.4846 43.385 85.4948 43.385C83.5051 43.385 83.332 43.731 83.0725 47.8835Z" fill="url(#paint9_linear_983_1740)"/>
<path d="M55.562 51.6035V57.2268H69.4037V54.6314C69.4037 52.0361 69.3172 52.0361 64.6456 52.0361H59.8875V49.0082C59.8875 46.3263 59.628 45.9803 57.7247 45.9803C55.6485 45.9803 55.562 46.1533 55.562 51.6035Z" fill="url(#paint10_linear_983_1740)"/>
<path d="M38.2597 58.0919C38.2597 65.7914 38.2597 65.8779 40.4225 65.8779C42.4988 65.8779 42.5853 65.6183 42.5853 60.6872V55.4965H46.9108C51.1499 55.4965 51.2364 55.41 51.2364 52.9012V50.3059H38.2597V58.0919Z" fill="url(#paint11_linear_983_1740)"/>
<path d="M27.8784 58.0919V62.4174H19.2273V76.3457L21.6496 76.0862C23.8124 75.8267 23.9854 75.4806 24.2449 71.2416L24.5045 66.743H33.0691V53.7663H30.4737C27.9649 53.7663 27.8784 53.8528 27.8784 58.0919Z" fill="url(#paint12_linear_983_1740)"/>
<path d="M46.9108 74.529H55.562V78.8545C55.562 83.0936 55.6485 83.1801 58.1573 83.1801H60.7526V69.3383H52.1015V64.5802C52.1015 59.9086 52.1015 59.8221 49.5062 59.8221H46.9108V74.529Z" fill="url(#paint13_linear_983_1740)"/>
<path d="M56.4271 62.4174C56.4271 64.9262 56.5136 65.0128 60.7526 65.0128H64.9917L65.5107 75.8267H72.4316C79.3525 75.8267 79.3525 75.8266 79.6121 73.4043C79.8716 71.0685 79.7851 71.0685 75.1135 71.0685H70.3554L69.8363 60.2546L56.4271 59.7356V62.4174Z" fill="url(#paint14_linear_983_1740)"/>
<path d="M28.7435 73.6639C28.7435 76.1727 28.83 76.2592 32.9826 76.2592H37.3081L37.5676 80.3252L37.8272 84.4778H44.7481C51.669 84.4778 51.669 84.4778 51.9285 82.0554C52.188 79.7196 52.1015 79.7196 47.4299 79.7196H42.5853V71.0685H28.7435V73.6639Z" fill="url(#paint15_linear_983_1740)"/>
<path d="M115.746 45.6885C116.174 47.2847 116.913 48.4136 117.965 49.0755C119.055 49.7373 120.476 50.0682 122.227 50.0682C123.356 50.0682 124.622 49.9319 126.023 49.6594C127.425 49.3869 128.807 48.9781 130.169 48.4331C130.714 49.4453 131.181 50.6521 131.571 52.0536C131.999 53.4551 132.232 54.915 132.271 56.4332C128.807 57.7179 125.264 58.3603 121.643 58.3603C118.841 58.3603 116.427 57.971 114.402 57.1924C112.417 56.4138 110.782 55.3432 109.497 53.9806C108.252 52.5792 107.317 50.9246 106.694 49.0171C106.11 47.1095 105.818 45.0267 105.818 42.7688C105.818 40.5498 106.13 38.467 106.753 36.5205C107.376 34.574 108.31 32.8806 109.556 31.4402C110.801 29.9997 112.359 28.8708 114.227 28.0532C116.096 27.1968 118.276 26.7686 120.768 26.7686C122.831 26.7686 124.661 27.1189 126.257 27.8197C127.892 28.5204 129.274 29.4937 130.403 30.7394C131.532 31.9462 132.388 33.4256 132.972 35.1774C133.595 36.8904 133.906 38.759 133.906 40.7834C133.906 41.8345 133.848 42.7883 133.731 43.6447C133.653 44.4622 133.576 45.1435 133.498 45.6885H115.746ZM124.972 38.9731C124.894 37.6106 124.466 36.4816 123.687 35.5862C122.948 34.6519 121.858 34.1847 120.417 34.1847C119.171 34.1847 118.101 34.574 117.205 35.3526C116.31 36.1312 115.785 37.3381 115.629 38.9731H124.972Z" fill="#38B6FF"/>
<path d="M135.838 55.9077L148.043 35.4694H138.057C137.863 34.613 137.727 33.8733 137.649 33.2504C137.61 32.5886 137.59 31.9657 137.59 31.3818C137.59 30.7978 137.61 30.2139 137.649 29.6299C137.727 29.007 137.863 28.2868 138.057 27.4693H161.824L162.408 29.3379L150.145 49.6594H161.299C161.571 51.2555 161.707 52.6181 161.707 53.7471C161.707 54.331 161.669 54.9344 161.591 55.5573C161.552 56.1413 161.454 56.842 161.299 57.6595H136.773L135.838 55.9077Z" fill="#38B6FF"/>
<path d="M190.207 31.2269C190.084 29.8752 189.537 28.8245 188.567 28.0749C187.608 27.313 186.238 26.9321 184.456 26.9321C183.276 26.9321 182.293 27.0857 181.507 27.3929C180.72 27.7001 180.131 28.1241 179.737 28.6648C179.344 29.1932 179.141 29.8015 179.129 30.4896C179.105 31.0549 179.215 31.5526 179.461 31.9827C179.719 32.4128 180.088 32.7937 180.567 33.1255C181.058 33.445 181.648 33.7276 182.336 33.9734C183.025 34.2192 183.799 34.4342 184.659 34.6186L187.903 35.3559C189.771 35.7614 191.418 36.3021 192.843 36.978C194.281 37.6538 195.485 38.4587 196.456 39.3926C197.439 40.3266 198.182 41.4018 198.686 42.6184C199.19 43.8349 199.448 45.199 199.46 46.7105C199.448 49.0944 198.846 51.1405 197.654 52.8486C196.462 54.5567 194.748 55.8654 192.511 56.7747C190.287 57.6841 187.602 58.1388 184.456 58.1388C181.298 58.1388 178.545 57.6657 176.198 56.7195C173.851 55.7732 172.026 54.3355 170.724 52.4062C169.421 50.4769 168.751 48.0376 168.715 45.0884H177.452C177.525 46.3049 177.851 47.3187 178.429 48.1298C179.006 48.9408 179.799 49.5552 180.806 49.9731C181.826 50.3909 183.006 50.5998 184.346 50.5998C185.574 50.5998 186.619 50.4339 187.479 50.1021C188.352 49.7703 189.021 49.3095 189.488 48.7196C189.955 48.1298 190.195 47.4539 190.207 46.692C190.195 45.9793 189.974 45.371 189.544 44.8672C189.114 44.3511 188.45 43.9087 187.553 43.54C186.668 43.1591 185.538 42.8089 184.161 42.4894L180.217 41.5677C176.948 40.8181 174.373 39.6077 172.493 37.9365C170.613 36.2529 169.679 33.9796 169.692 31.1163C169.679 28.7815 170.306 26.7355 171.572 24.9782C172.837 23.221 174.588 21.8508 176.825 20.8677C179.062 19.8846 181.611 19.3931 184.475 19.3931C187.399 19.3931 189.937 19.8908 192.087 20.8861C194.25 21.8692 195.927 23.2517 197.119 25.0335C198.311 26.8154 198.92 28.8798 198.944 31.2269H190.207Z" fill="#34076B"/>
<path d="M240.93 33.5863H231.714C231.591 32.6401 231.339 31.7861 230.958 31.0242C230.577 30.2623 230.074 29.611 229.447 29.0703C228.82 28.5296 228.077 28.1179 227.217 27.8353C226.369 27.5404 225.429 27.3929 224.396 27.3929C222.565 27.3929 220.986 27.8414 219.659 28.7385C218.344 29.6356 217.33 30.932 216.618 32.6278C215.917 34.3236 215.567 36.3758 215.567 38.7844C215.567 41.2912 215.923 43.3926 216.636 45.0884C217.361 46.7719 218.375 48.0438 219.677 48.904C220.992 49.7519 222.547 50.1758 224.341 50.1758C225.349 50.1758 226.264 50.0468 227.087 49.7887C227.923 49.5307 228.654 49.1559 229.281 48.6643C229.92 48.1605 230.442 47.5522 230.848 46.8395C231.266 46.1145 231.554 45.2973 231.714 44.3879L240.93 44.4432C240.771 46.1145 240.285 47.7611 239.474 49.3832C238.676 51.0053 237.576 52.4861 236.175 53.8255C234.774 55.1527 233.066 56.2095 231.051 56.9959C229.047 57.7824 226.75 58.1756 224.157 58.1756C220.74 58.1756 217.681 57.426 214.977 55.9268C212.286 54.4154 210.16 52.2157 208.599 49.3279C207.039 46.4401 206.258 42.9256 206.258 38.7844C206.258 34.6308 207.051 31.1102 208.636 28.2224C210.221 25.3346 212.366 23.1411 215.069 21.6419C217.773 20.1427 220.802 19.3931 224.157 19.3931C226.442 19.3931 228.556 19.7126 230.498 20.3516C232.439 20.9783 234.147 21.8999 235.622 23.1165C237.096 24.3208 238.295 25.8015 239.216 27.5588C240.138 29.3161 240.709 31.3252 240.93 33.5863Z" fill="#34076B"/>
<path d="M248.747 19.9092H260.046L269.631 43.282H270.074L279.659 19.9092H290.958V57.6595H282.073V34.4711H281.76L272.691 57.4199H267.014L257.945 34.3421H257.632V57.6595H248.747V19.9092Z" fill="#34076B"/>
<path d="M178.744 82.315H177.546L181.011 72.8774H182.191L185.656 82.315H184.458L181.638 74.3705H181.564L178.744 82.315ZM179.186 78.6284H184.016V79.6422H179.186V78.6284Z" fill="black"/>
<path d="M194.757 72.8774V82.315H193.614V72.8774H194.757Z" fill="black"/>
<path d="M216.587 82.315H213.675V72.8774H216.716C217.632 72.8774 218.415 73.0663 219.067 73.4442C219.718 73.819 220.217 74.3582 220.564 75.0617C220.911 75.7621 221.085 76.6008 221.085 77.5778C221.085 78.5608 220.91 79.4072 220.56 80.1169C220.209 80.8235 219.7 81.3672 219.03 81.7482C218.36 82.126 217.546 82.315 216.587 82.315ZM214.818 81.3012H216.514C217.294 81.3012 217.941 81.1506 218.454 80.8496C218.967 80.5485 219.349 80.1199 219.601 79.5639C219.853 79.0078 219.979 78.3458 219.979 77.5778C219.979 76.8159 219.855 76.16 219.606 75.6101C219.357 75.0571 218.985 74.6331 218.491 74.3382C217.996 74.0402 217.38 73.8912 216.643 73.8912H214.818V81.3012Z" fill="black"/>
<path d="M229.49 82.315V72.8774H232.679C233.417 72.8774 234.022 73.0034 234.495 73.2553C234.968 73.5041 235.318 73.8467 235.546 74.2829C235.773 74.7191 235.887 75.2153 235.887 75.7713C235.887 76.3274 235.773 76.8205 235.546 77.2506C235.318 77.6807 234.97 78.0186 234.5 78.2644C234.029 78.5071 233.429 78.6284 232.698 78.6284H230.117V77.5962H232.661C233.165 77.5962 233.57 77.5225 233.877 77.375C234.188 77.2275 234.412 77.0186 234.55 76.7483C234.692 76.4749 234.762 76.1492 234.762 75.7713C234.762 75.3935 234.692 75.0632 234.55 74.7806C234.409 74.498 234.183 74.2798 233.873 74.1262C233.563 73.9695 233.152 73.8912 232.642 73.8912H230.633V82.315H229.49ZM233.933 78.0754L236.255 82.315H234.928L232.642 78.0754H233.933Z" fill="black"/>
<path d="M245.422 72.8774V82.315H244.279V72.8774H245.422Z" fill="black"/>
<path d="M254.589 72.8774L257.391 80.8219H257.501L260.303 72.8774H261.501L258.036 82.315H256.856L253.391 72.8774H254.589Z" fill="black"/>
<path d="M269.46 82.315V72.8774H275.155V73.8912H270.602V77.0801H274.86V78.0939H270.602V81.3012H275.229V82.315H269.46Z" fill="black"/>
<path d="M291.187 72.8774V82.315H290.081L284.938 74.905H284.846V82.315H283.703V72.8774H284.809L289.971 80.3058H290.063V72.8774H291.187Z" fill="black"/>
<defs>
<linearGradient id="paint0_linear_983_1740" x1="150.882" y1="7.05029" x2="150.882" y2="84.4778" gradientUnits="userSpaceOnUse">
<stop stop-color="#38B6FF"/>
<stop offset="1" stop-color="#34076B"/>
</linearGradient>
<linearGradient id="paint1_linear_983_1740" x1="150.882" y1="7.05029" x2="150.882" y2="84.4778" gradientUnits="userSpaceOnUse">
<stop stop-color="#38B6FF"/>
<stop offset="1" stop-color="#34076B"/>
</linearGradient>
<linearGradient id="paint2_linear_983_1740" x1="150.882" y1="7.05029" x2="150.882" y2="84.4778" gradientUnits="userSpaceOnUse">
<stop stop-color="#38B6FF"/>
<stop offset="1" stop-color="#34076B"/>
</linearGradient>
<linearGradient id="paint3_linear_983_1740" x1="150.882" y1="7.05029" x2="150.882" y2="84.4778" gradientUnits="userSpaceOnUse">
<stop stop-color="#38B6FF"/>
<stop offset="1" stop-color="#34076B"/>
</linearGradient>
<linearGradient id="paint4_linear_983_1740" x1="150.882" y1="7.05029" x2="150.882" y2="84.4778" gradientUnits="userSpaceOnUse">
<stop stop-color="#38B6FF"/>
<stop offset="1" stop-color="#34076B"/>
</linearGradient>
<linearGradient id="paint5_linear_983_1740" x1="150.882" y1="7.05029" x2="150.882" y2="84.4778" gradientUnits="userSpaceOnUse">
<stop stop-color="#38B6FF"/>
<stop offset="1" stop-color="#34076B"/>
</linearGradient>
<linearGradient id="paint6_linear_983_1740" x1="150.882" y1="7.05029" x2="150.882" y2="84.4778" gradientUnits="userSpaceOnUse">
<stop stop-color="#38B6FF"/>
<stop offset="1" stop-color="#34076B"/>
</linearGradient>
<linearGradient id="paint7_linear_983_1740" x1="150.882" y1="7.05029" x2="150.882" y2="84.4778" gradientUnits="userSpaceOnUse">
<stop stop-color="#38B6FF"/>
<stop offset="1" stop-color="#34076B"/>
</linearGradient>
<linearGradient id="paint8_linear_983_1740" x1="150.882" y1="7.05029" x2="150.882" y2="84.4778" gradientUnits="userSpaceOnUse">
<stop stop-color="#38B6FF"/>
<stop offset="1" stop-color="#34076B"/>
</linearGradient>
<linearGradient id="paint9_linear_983_1740" x1="150.882" y1="7.05029" x2="150.882" y2="84.4778" gradientUnits="userSpaceOnUse">
<stop stop-color="#38B6FF"/>
<stop offset="1" stop-color="#34076B"/>
</linearGradient>
<linearGradient id="paint10_linear_983_1740" x1="150.882" y1="7.05029" x2="150.882" y2="84.4778" gradientUnits="userSpaceOnUse">
<stop stop-color="#38B6FF"/>
<stop offset="1" stop-color="#34076B"/>
</linearGradient>
<linearGradient id="paint11_linear_983_1740" x1="150.882" y1="7.05029" x2="150.882" y2="84.4778" gradientUnits="userSpaceOnUse">
<stop stop-color="#38B6FF"/>
<stop offset="1" stop-color="#34076B"/>
</linearGradient>
<linearGradient id="paint12_linear_983_1740" x1="150.882" y1="7.05029" x2="150.882" y2="84.4778" gradientUnits="userSpaceOnUse">
<stop stop-color="#38B6FF"/>
<stop offset="1" stop-color="#34076B"/>
</linearGradient>
<linearGradient id="paint13_linear_983_1740" x1="150.882" y1="7.05029" x2="150.882" y2="84.4778" gradientUnits="userSpaceOnUse">
<stop stop-color="#38B6FF"/>
<stop offset="1" stop-color="#34076B"/>
</linearGradient>
<linearGradient id="paint14_linear_983_1740" x1="150.882" y1="7.05029" x2="150.882" y2="84.4778" gradientUnits="userSpaceOnUse">
<stop stop-color="#38B6FF"/>
<stop offset="1" stop-color="#34076B"/>
</linearGradient>
<linearGradient id="paint15_linear_983_1740" x1="150.882" y1="7.05029" x2="150.882" y2="84.4778" gradientUnits="userSpaceOnUse">
<stop stop-color="#38B6FF"/>
<stop offset="1" stop-color="#34076B"/>
</linearGradient>
</defs>
</svg>
